<?xml version="1.0" standalone="no"?>
<!DOCTYPE svg PUBLIC "-//W3C//DTD SVG 20010904//EN"
 "http://www.w3.org/TR/2001/REC-SVG-20010904/DTD/svg10.dtd">
<svg version="1.0" xmlns="http://www.w3.org/2000/svg"
 width="700.000000pt" height="700.000000pt" viewBox="0 0 700.000000 700.000000"
 preserveAspectRatio="xMidYMid meet">
<metadata>
Created by potrace 1.14, written by Peter Selinger 2001-2017
</metadata>
<g transform="translate(0.000000,700.000000) scale(0.100000,-0.100000)"
fill="#000000" stroke="none">
<path d="M3278 6995 c-1 -1 -42 -5 -89 -9 -47 -4 -95 -8 -105 -10 -10 -2 -41
-7 -69 -10 -93 -12 -130 -18 -135 -21 -3 -2 -24 -6 -46 -9 -156 -24 -422 -102
-638 -188 -126 -50 -346 -156 -456 -221 -74 -43 -274 -174 -304 -198 -6 -5
-49 -39 -96 -76 -419 -329 -753 -741 -989 -1224 -39 -80 -71 -149 -71 -153 0
-5 -7 -22 -15 -39 -65 -139 -161 -459 -199 -662 -32 -166 -38 -208 -53 -375
-15 -165 -8 -592 12 -711 2 -13 6 -46 9 -74 20 -170 80 -428 148 -630 400
-1191 1421 -2085 2648 -2320 96 -18 123 -23 179 -31 25 -3 57 -8 71 -10 163
-25 682 -25 842 1 13 2 46 7 73 10 86 12 90 13 200 34 584 113 1169 405 1630
815 292 260 542 571 735 915 54 98 152 301 165 342 4 13 11 29 15 34 8 10 59
151 101 280 18 53 64 226 75 280 16 79 54 301 59 350 4 33 9 71 11 85 9 46 11
524 4 605 -12 128 -21 202 -25 227 -3 13 -8 43 -11 68 -3 25 -7 53 -10 62 -5
18 -11 46 -20 93 -21 119 -117 445 -159 540 -7 17 -32 75 -55 130 -246 586
-720 1155 -1266 1516 -164 109 -388 232 -534 294 -36 15 -83 35 -105 45 -165
73 -531 174 -740 204 -23 4 -52 8 -65 11 -13 3 -52 7 -86 11 -33 3 -74 8 -90
10 -33 5 -540 14 -546 9z m599 -2507 l2 -1147 -620 -620 c-342 -342 -624 -621
-627 -621 -9 0 -522 513 -522 521 0 4 230 236 510 517 l510 510 0 989 c0 544
2 992 4 994 2 2 170 4 373 4 l368 -1 2 -1146z"/>
</g>
</svg>
