<svg class="lds-gear" width="172px"  height="172px"  xmlns="http://www.w3.org/2000/svg" xmlns:xlink="http://www.w3.org/1999/xlink" viewBox="0 0 100 100" preserveAspectRatio="xMidYMid" style="background: none;"><g transform="translate(50 50)">
<g transform="rotate(56.9113)">
<animateTransform attributeName="transform" type="rotate" values="0;360" keyTimes="0;1" dur="2s" repeatCount="indefinite"></animateTransform><path d="M29.58039891549808 -5 L44.58039891549808 -5 L44.58039891549808 5 L29.58039891549808 5 A30 30 0 0 1 24.452034569284628 17.38096675741915 L24.452034569284628 17.38096675741915 L35.05863628708284 27.98756847521736 L27.987568475217365 35.05863628708284 L17.380966757419152 24.452034569284628 A30 30 0 0 1 5.000000000000001 29.58039891549808 L5.000000000000001 29.58039891549808 L5.000000000000002 44.58039891549808 L-4.9999999999999964 44.58039891549808 L-4.999999999999997 29.58039891549808 A30 30 0 0 1 -17.38096675741915 24.452034569284628 L-17.38096675741915 24.452034569284628 L-27.98756847521736 35.05863628708284 L-35.058636287082834 27.987568475217365 L-24.452034569284624 17.380966757419152 A30 30 0 0 1 -29.58039891549808 5.000000000000002 L-29.58039891549808 5.000000000000002 L-44.58039891549808 5.0000000000000036 L-44.58039891549808 -4.999999999999994 L-29.58039891549808 -4.999999999999996 A30 30 0 0 1 -24.45203456928463 -17.38096675741915 L-24.45203456928463 -17.38096675741915 L-35.05863628708284 -27.98756847521736 L-27.98756847521736 -35.05863628708284 L-17.380966757419145 -24.45203456928463 A30 30 0 0 1 -5.000000000000017 -29.580398915498076 L-5.000000000000017 -29.580398915498076 L-5.0000000000000195 -44.58039891549808 L5.0000000000000036 -44.58039891549808 L5.000000000000006 -29.58039891549808 A30 30 0 0 1 17.380966757419138 -24.452034569284635 L17.380966757419138 -24.452034569284635 L27.98756847521735 -35.05863628708285 L35.05863628708284 -27.98756847521736 L24.45203456928463 -17.380966757419145 A30 30 0 0 1 29.580398915498076 -5.0000000000000195 M0 -15A15 15 0 1 0 0 15 A15 15 0 1 0 0 -15" fill="#4658ac"></path></g></g></svg>