<?xml version="1.0"?>
<svg xmlns="http://www.w3.org/2000/svg" id="Layer_5" enable-background="new 0 0 64 64" height="512px" viewBox="0 0 64 64" width="512px" class=""><g><path d="m3 26c0 .551.448 1 1 1h26c.552 0 1-.449 1-1v-15h-28zm2-13h14v4h10v8h-14v-4h-10z" data-original="#000000" class="active-path" data-old_color="#000000" fill="#FFC500"/><path d="m30 3h-26c-.552 0-1 .449-1 1v5h28v-5c0-.551-.448-1-1-1zm-23 4h-2v-2h2zm4 0h-2v-2h2zm4 0h-2v-2h2z" data-original="#000000" class="active-path" data-old_color="#000000" fill="#FFC500"/><path d="m15 17h2v-2h-10v4h8z" data-original="#000000" class="active-path" data-old_color="#000000" fill="#FFC500"/><path d="m17 19h10v4h-10z" data-original="#000000" class="active-path" data-old_color="#000000" fill="#FFC500"/><path d="m7 49h10v4h-10z" data-original="#000000" class="active-path" data-old_color="#000000" fill="#FFC500"/><path d="m17 57h10v-4h-8v2h-2z" data-original="#000000" class="active-path" data-old_color="#000000" fill="#FFC500"/><path d="m30 37h-26c-.552 0-1 .449-1 1v5h28v-5c0-.551-.448-1-1-1zm-23 4h-2v-2h2zm4 0h-2v-2h2zm4 0h-2v-2h2z" data-original="#000000" class="active-path" data-old_color="#000000" fill="#FFC500"/><path d="m3 60c0 .551.448 1 1 1h26c.552 0 1-.449 1-1v-15h-28zm2-13h14v4h10v8h-14v-4h-10z" data-original="#000000" class="active-path" data-old_color="#000000" fill="#FFC500"/><path d="m53.394 49.363-5.03 5.03c-1.037 1.037-2.414 1.607-3.879 1.607-3.024 0-5.485-2.46-5.485-5.485 0-1.465.57-2.843 1.606-3.878l5.03-5.03c1.037-1.037 2.414-1.607 3.879-1.607h.814l1.641 1.212c.608.526 1.306.788 2.03.788.666 0 1.276-.226 1.775-.594-1.375-2.112-3.704-3.406-6.26-3.406-1.999 0-3.879.779-5.293 2.192l-5.029 5.029c-1.415 1.414-2.193 3.294-2.193 5.294 0 4.127 3.358 7.485 7.485 7.485 1.999 0 3.879-.779 5.293-2.192l5.029-5.029c.895-.895 1.533-1.994 1.883-3.19-.73.229-1.501.357-2.297.392-.26.508-.597.98-.999 1.382z" data-original="#000000" class="active-path" data-old_color="#000000" fill="#FFC500"/><path d="m54 26c-3.859 0-7 3.14-7 7v3.345c.648-.177 1.317-.283 2-.32v-3.025c0-2.757 2.243-5 5-5s5 2.243 5 5v6c0 2.757-2.243 5-5 5-1.206 0-2.372-.437-3.282-1.23l-1.046-.77h-.157c-.574 0-1.119.153-1.612.412 1.228 2.197 3.537 3.588 6.097 3.588 3.859 0 7-3.14 7-7v-4-2c0-3.86-3.141-7-7-7z" data-original="#000000" class="active-path" data-old_color="#000000" fill="#FFC500"/><path d="m58 16h-15v-3l-5.333 4 5.333 4v-3h14c1.103 0 2 .897 2 2v5.522c.756.507 1.429 1.127 2 1.834v-8.356c0-1.654-1.346-3-3-3z" data-original="#000000" class="active-path" data-old_color="#000000" fill="#FFC500"/></g> </svg>
